# xmcd
#
# Track frame offsets: 
#        150
#        15212
#        33747
#        57086
#        69433
#        91652
#        108832
#        123293
#        142346
#        159342
#        173354
#        192656
#        202963
#        222847
#        243550
#        264024
#        282522
#        294443
#
# Disc length: 4201 seconds
#
# Revision: 0
# Processed by: cddbd v1.5.2PL0 Copyright (c) Steve Scherf et al.
# Submitted via: ExactAudioCopy v1.0b3
#
DISCID=f8106712
DTITLE=Charlie Sayles - Night Ain't Right The Complete Sessions
DYEAR=1990
DGENRE=Rock
TTITLE0=Night Ain't Right
TTITLE1=Eli
TTITLE2=Small Room
TTITLE3=Down And Out
TTITLE4=There's A Woman
TTITLE5=Automobile
TTITLE6=Kick Your Shoes Off
TTITLE7=Lamp Post
TTITLE8=Chromatic Blues
TTITLE9=Bill Monroe
TTITLE10=Headin' Downtown
TTITLE11=South Of The Border
TTITLE12=People
TTITLE13=Meet Me In The Bottom
TTITLE14=Hendrix
TTITLE15=Girl Where You Coming From
TTITLE16=Woodie
TTITLE17=Drifting Blues
EXTD=
EXTT0=
EXTT1=
EXTT2=
EXTT3=
EXTT4=
EXTT5=
EXTT6=
EXTT7=
EXTT8=
EXTT9=
EXTT10=
EXTT11=
EXTT12=
EXTT13=
EXTT14=
EXTT15=
EXTT16=
EXTT17=
PLAYORDER=
